<svg fill="none" height="800" viewBox="-20 0 190 190" width="800" xmlns="http://www.w3.org/2000/svg"><path clip-rule="evenodd" d="m135.24 117.11-11 .26.34 29.7h-24.17l-1-29.89 10.83-.07-4.77-24.42-17.63-9.27 8.6-4.19c.94-4.57 4.84-6.52 4.84-9.37 0-4-6.56-4-6.56 1.33l-4.2-1c.48-5.66 2.48-9.19 9.17-9.19 5.42 0 8 3 8 8.62 0 4.61-3.42 6.23-4 9.64l26.78 13.41zm-61.32 30h-47.45v-28.6l-11.7.28 4.5-26.31 27.17-13.25c.94-4.57 4.84-6.52 4.84-9.37 0-4-6.56-4-6.56 1.33l-4.2-1c.48-5.66 2.48-9.19 9.17-9.19 5.42 0 8 3 8 8.62 0 4.61-3.42 6.23-4 9.64l26.78 13.43 4.77 24.42-11.17.26zm-2.5-67.81c.92-4.62 4.86-6.58 4.86-9.44 0-4-6.56-4-6.56 1.33l-4.2-1c.48-5.66 2.48-9.19 9.17-9.19 5.42 0 8 3 8 8.62 0 4.91-3.87 6.43-4.11 10.32z" fill="#000" fill-rule="evenodd"/></svg>