<svg height="62.499027mm" viewBox="0 0 101.79839 62.499027" width="101.79839mm" xmlns="http://www.w3.org/2000/svg"><g stroke-width=".264583" transform="translate(-52.699395 -84.373647)"><path d="m92.838314 84.373645 32.180356.155832-16.07018 35.341173c-2.567 5.63374-6.40035 10.10666-13.925744 11.19521h-42.323351l6.615122-13.54468 35.708229.16504 8.191614-19.113774-16.500454-.195836z"/><path d="m111.73143 122.95132 3.8958-8.88241h14.18069c9.69964-1.7661 13.21154-14.440419.31167-15.583187l-7.47993-.311663 6.07744-13.557369 10.44074.155832c15.20168.462538 26.68824 27.135647-5.14246 40.360447l3.11664 5.92161-20.41397.31166z"/></g><path d="m51.746977 138.35074v11.57493h1.896733v-5.1228h5.657779v-1.62114h-5.657779v-3.20985h5.998218v-1.62114zm12.72596 0-4.425712 11.57493h2.026425l1.053741-2.90184h4.847208l1.053741 2.90184h2.026425l-4.425712-11.57493zm-.778147 7.1168 1.831888-5.07417h.06484l1.815677 5.07417zm12.58006-7.34376c-1.248278 0-2.269596.27559-3.080166.84299-.875416.58361-1.296912 1.39418-1.296912 2.4155s.437708 1.79946 1.329335 2.33444c.340439.19454 1.232066.51876 2.658669.97268 1.280701.38908 2.026425.64846 2.253384.76194.713302.35665 1.086164.84299 1.086164 1.45902 0 .48635-.259382.85921-.745724 1.15101-.486342.2756-1.167221.4215-2.010214.4215-.956472 0-1.653562-.17833-2.107482-.50255-.502553-.37287-.810569-1.00511-.940261-1.88053h-1.880522c.08106 1.47524.616033 2.54519 1.588717 3.22607.794359.55119 1.912945.82678 3.339548.82678 1.475238 0 2.626247-.30801 3.436817-.89162.81057-.59982 1.215855-1.42661 1.215855-2.46414 0-1.06995-.502553-1.89673-1.50766-2.49655-.453919-.25938-1.459026-.64846-3.031532-1.1348-1.069952-.34044-1.73462-.58361-1.977791-.7133-.551187-.29181-.81057-.69709-.81057-1.18343 0-.55119.22696-.95648.713302-1.19965.389074-.21074.940261-.30801 1.669774-.30801.842993 0 1.491449.1459 1.912945.47013.421497.30801.729513.82678.891627 1.54008h1.880522c-.113479-1.26449-.58361-2.20475-1.39418-2.80457-.761936-.5674-1.831888-.84299-3.193645-.84299zm5.576737.22696v1.62114h3.793467v9.95379h1.896734v-9.95379h3.793467v-1.62114zm20.345303-.22696c-1.24828 0-2.269593.27559-3.080163.84299-.875416.58361-1.296912 1.39418-1.296912 2.4155s.437707 1.79946 1.329334 2.33444c.34044.19454 1.232071.51876 2.658671.97268 1.2807.38908 2.02642.64846 2.25338.76194.7133.35665 1.08617.84299 1.08617 1.45902 0 .48635-.25939.85921-.74573 1.15101-.48634.2756-1.16722.4215-2.01021.4215-.95647 0-1.65356-.17833-2.10748-.50255-.502556-.37287-.810573-1.00511-.940264-1.88053h-1.880522c.08106 1.47524.616033 2.54519 1.588717 3.22607.794359.55119 1.912949.82678 3.339549.82678 1.47524 0 2.62625-.30801 3.43682-.89162.81057-.59982 1.21585-1.42661 1.21585-2.46414 0-1.06995-.50255-1.89673-1.50766-2.49655-.45392-.25938-1.45903-.64846-3.03153-1.1348-1.06995-.34044-1.73462-.58361-1.97779-.7133-.551189-.29181-.810572-.69709-.810572-1.18343 0-.55119.22696-.95648.713302-1.19965.38907-.21074.94026-.30801 1.66977-.30801.843 0 1.49145.1459 1.91295.47013.4215.30801.72951.82678.89163 1.54008h1.88052c-.11348-1.26449-.58361-2.20475-1.39418-2.80457-.76194-.5674-1.83189-.84299-3.19365-.84299zm5.57674.22696v1.62114h3.79346v9.95379h1.89674v-9.95379h3.79347v-1.62114zm16.00064-.22696c-1.78325 0-3.17743.56739-4.18254 1.73462-.97268 1.10237-1.44281 2.52897-1.44281 4.29602 0 1.75083.47013 3.17743 1.44281 4.27981 1.00511 1.13479 2.39929 1.7184 4.18254 1.7184 1.76705 0 3.16123-.56739 4.18254-1.70219.97269-1.08617 1.45903-2.51277 1.45903-4.29602 0-1.78326-.48634-3.22607-1.45903-4.31224-1.02131-1.15101-2.41549-1.7184-4.18254-1.7184zm0 1.66977c1.19965 0 2.1237.37286 2.77215 1.15101.63225.77815.95647 1.8481.95647 3.20986 0 1.36175-.32422 2.41549-.95647 3.17743-.64845.76194-1.5725 1.15101-2.77215 1.15101-1.19964 0-2.1399-.40529-2.78836-1.19964-.63224-.77815-.94026-1.81568-.94026-3.1288 0-1.32934.30802-2.36687.94026-3.14502.66467-.81057 1.58872-1.21585 2.78836-1.21585zm7.42482-1.44281v11.57493h1.89674v-4.71751h2.99911c.64845 0 1.15101.12969 1.49145.42149.32422.2756.51876.72952.58361 1.36176l.1459 1.4266c.0648.64846.22696 1.15101.50255 1.50766h2.05885c-.38907-.42149-.63224-.98889-.69709-1.70219l-.19454-1.86431c-.12969-1.1348-.69709-1.79947-1.70219-2.02643v-.0324c.61603-.16212 1.11858-.50255 1.47523-1.02132.32423-.47013.48635-1.00511.48635-1.60493 0-1.10237-.37287-1.94537-1.08617-2.52898-.68088-.53497-1.62114-.79435-2.80457-.79435zm1.89674 1.62114h2.99911c.77814 0 1.34554.12969 1.70219.42149.35665.2756.53498.72951.53498 1.36176 0 .58361-.17833 1.03753-.53498 1.36176-.38907.30801-.95647.47013-1.70219.47013h-2.99911zm9.40261-1.62114v11.57493h8.62447v-1.62114h-6.72773v-3.50166h6.06306v-1.62114h-6.06306v-3.20985h6.45213v-1.62114z" stroke-width=".253301" transform="matrix(1.022332 0 0 .97815583 -52.699395 -84.373647)"/></svg>