<?xml version="1.0" encoding="UTF-8" standalone="no"?>
<!-- Created with Inkscape (http://www.inkscape.org/) -->

<svg
   width="101.79839mm"
   height="62.499027mm"
   viewBox="0 0 101.79839 62.499027"
   version="1.1"
   id="svg1"
   xml:space="preserve"
   xmlns="http://www.w3.org/2000/svg"
   xmlns:svg="http://www.w3.org/2000/svg"><defs
     id="defs1" /><g
     id="layer2"
     transform="translate(-52.699395,-84.373647)"><path
       style="fill:#000000;stroke-width:0.264583"
       d="m 92.838314,84.373645 32.180356,0.155832 -16.07018,35.341173 c -2.567,5.63374 -6.40035,10.10666 -13.925744,11.19521 H 52.699395 l 6.615122,-13.54468 35.708229,0.16504 8.191614,-19.113774 -16.500454,-0.195836 z"
       id="path1" /><path
       style="fill:#000000;stroke-width:0.264583"
       d="m 111.73143,122.95132 3.8958,-8.88241 h 14.18069 c 9.69964,-1.7661 13.21154,-14.440419 0.31167,-15.583187 l -7.47993,-0.311663 6.07744,-13.557369 10.44074,0.155832 c 15.20168,0.462538 26.68824,27.135647 -5.14246,40.360447 l 3.11664,5.92161 -20.41397,0.31166 z"
       id="path2" /></g><g
     id="layer3"
     transform="translate(-52.699395,-84.373647)"><path
       d="m 51.746977,138.35074 v 11.57493 h 1.896733 v -5.1228 h 5.657779 v -1.62114 H 53.64371 v -3.20985 h 5.998218 v -1.62114 z m 12.72596,0 -4.425712,11.57493 h 2.026425 l 1.053741,-2.90184 h 4.847208 l 1.053741,2.90184 h 2.026425 l -4.425712,-11.57493 z m -0.778147,7.1168 1.831888,-5.07417 h 0.06484 l 1.815677,5.07417 z m 12.58006,-7.34376 c -1.248278,0 -2.269596,0.27559 -3.080166,0.84299 -0.875416,0.58361 -1.296912,1.39418 -1.296912,2.4155 0,1.02132 0.437708,1.79946 1.329335,2.33444 0.340439,0.19454 1.232066,0.51876 2.658669,0.97268 1.280701,0.38908 2.026425,0.64846 2.253384,0.76194 0.713302,0.35665 1.086164,0.84299 1.086164,1.45902 0,0.48635 -0.259382,0.85921 -0.745724,1.15101 -0.486342,0.2756 -1.167221,0.4215 -2.010214,0.4215 -0.956472,0 -1.653562,-0.17833 -2.107482,-0.50255 -0.502553,-0.37287 -0.810569,-1.00511 -0.940261,-1.88053 h -1.880522 c 0.08106,1.47524 0.616033,2.54519 1.588717,3.22607 0.794359,0.55119 1.912945,0.82678 3.339548,0.82678 1.475238,0 2.626247,-0.30801 3.436817,-0.89162 0.81057,-0.59982 1.215855,-1.42661 1.215855,-2.46414 0,-1.06995 -0.502553,-1.89673 -1.50766,-2.49655 -0.453919,-0.25938 -1.459026,-0.64846 -3.031532,-1.1348 -1.069952,-0.34044 -1.73462,-0.58361 -1.977791,-0.7133 -0.551187,-0.29181 -0.81057,-0.69709 -0.81057,-1.18343 0,-0.55119 0.22696,-0.95648 0.713302,-1.19965 0.389074,-0.21074 0.940261,-0.30801 1.669774,-0.30801 0.842993,0 1.491449,0.1459 1.912945,0.47013 0.421497,0.30801 0.729513,0.82678 0.891627,1.54008 h 1.880522 c -0.113479,-1.26449 -0.58361,-2.20475 -1.39418,-2.80457 -0.761936,-0.5674 -1.831888,-0.84299 -3.193645,-0.84299 z m 5.576737,0.22696 v 1.62114 h 3.793467 v 9.95379 h 1.896734 v -9.95379 h 3.793467 v -1.62114 z m 20.345303,-0.22696 c -1.24828,0 -2.269593,0.27559 -3.080163,0.84299 -0.875416,0.58361 -1.296912,1.39418 -1.296912,2.4155 0,1.02132 0.437707,1.79946 1.329334,2.33444 0.34044,0.19454 1.232071,0.51876 2.658671,0.97268 1.2807,0.38908 2.02642,0.64846 2.25338,0.76194 0.7133,0.35665 1.08617,0.84299 1.08617,1.45902 0,0.48635 -0.25939,0.85921 -0.74573,1.15101 -0.48634,0.2756 -1.16722,0.4215 -2.01021,0.4215 -0.95647,0 -1.65356,-0.17833 -2.10748,-0.50255 -0.502556,-0.37287 -0.810573,-1.00511 -0.940264,-1.88053 h -1.880522 c 0.08106,1.47524 0.616033,2.54519 1.588717,3.22607 0.794359,0.55119 1.912949,0.82678 3.339549,0.82678 1.47524,0 2.62625,-0.30801 3.43682,-0.89162 0.81057,-0.59982 1.21585,-1.42661 1.21585,-2.46414 0,-1.06995 -0.50255,-1.89673 -1.50766,-2.49655 -0.45392,-0.25938 -1.45903,-0.64846 -3.03153,-1.1348 -1.06995,-0.34044 -1.73462,-0.58361 -1.97779,-0.7133 -0.551189,-0.29181 -0.810572,-0.69709 -0.810572,-1.18343 0,-0.55119 0.22696,-0.95648 0.713302,-1.19965 0.38907,-0.21074 0.94026,-0.30801 1.66977,-0.30801 0.843,0 1.49145,0.1459 1.91295,0.47013 0.4215,0.30801 0.72951,0.82678 0.89163,1.54008 h 1.88052 c -0.11348,-1.26449 -0.58361,-2.20475 -1.39418,-2.80457 -0.76194,-0.5674 -1.83189,-0.84299 -3.19365,-0.84299 z m 5.57674,0.22696 v 1.62114 h 3.79346 v 9.95379 h 1.89674 v -9.95379 h 3.79347 v -1.62114 z m 16.00064,-0.22696 c -1.78325,0 -3.17743,0.56739 -4.18254,1.73462 -0.97268,1.10237 -1.44281,2.52897 -1.44281,4.29602 0,1.75083 0.47013,3.17743 1.44281,4.27981 1.00511,1.13479 2.39929,1.7184 4.18254,1.7184 1.76705,0 3.16123,-0.56739 4.18254,-1.70219 0.97269,-1.08617 1.45903,-2.51277 1.45903,-4.29602 0,-1.78326 -0.48634,-3.22607 -1.45903,-4.31224 -1.02131,-1.15101 -2.41549,-1.7184 -4.18254,-1.7184 z m 0,1.66977 c 1.19965,0 2.1237,0.37286 2.77215,1.15101 0.63225,0.77815 0.95647,1.8481 0.95647,3.20986 0,1.36175 -0.32422,2.41549 -0.95647,3.17743 -0.64845,0.76194 -1.5725,1.15101 -2.77215,1.15101 -1.19964,0 -2.1399,-0.40529 -2.78836,-1.19964 -0.63224,-0.77815 -0.94026,-1.81568 -0.94026,-3.1288 0,-1.32934 0.30802,-2.36687 0.94026,-3.14502 0.66467,-0.81057 1.58872,-1.21585 2.78836,-1.21585 z m 7.42482,-1.44281 v 11.57493 h 1.89674 v -4.71751 h 2.99911 c 0.64845,0 1.15101,0.12969 1.49145,0.42149 0.32422,0.2756 0.51876,0.72952 0.58361,1.36176 l 0.1459,1.4266 c 0.0648,0.64846 0.22696,1.15101 0.50255,1.50766 h 2.05885 c -0.38907,-0.42149 -0.63224,-0.98889 -0.69709,-1.70219 l -0.19454,-1.86431 c -0.12969,-1.1348 -0.69709,-1.79947 -1.70219,-2.02643 v -0.0324 c 0.61603,-0.16212 1.11858,-0.50255 1.47523,-1.02132 0.32423,-0.47013 0.48635,-1.00511 0.48635,-1.60493 0,-1.10237 -0.37287,-1.94537 -1.08617,-2.52898 -0.68088,-0.53497 -1.62114,-0.79435 -2.80457,-0.79435 z m 1.89674,1.62114 h 2.99911 c 0.77814,0 1.34554,0.12969 1.70219,0.42149 0.35665,0.2756 0.53498,0.72951 0.53498,1.36176 0,0.58361 -0.17833,1.03753 -0.53498,1.36176 -0.38907,0.30801 -0.95647,0.47013 -1.70219,0.47013 h -2.99911 z m 9.40261,-1.62114 v 11.57493 h 8.62447 v -1.62114 h -6.72773 v -3.50166 h 6.06306 v -1.62114 h -6.06306 v -3.20985 h 6.45213 v -1.62114 z"
       id="text2"
       style="font-weight:600;font-size:16.2114px;font-family:'PingFang TC';-inkscape-font-specification:'PingFang TC Semi-Bold';stroke-width:0.253301"
       transform="scale(1.022332,0.97815583)"
       aria-label="FAST STORE" /></g></svg>
